# Alias OBJ Model File
# Exported from SketchUp, (c) 2000-2012 Trimble Navigation Limited
# File units = meters

mtllib bullet.mtl

g Mesh1 Model

usemtl FrontColor
v 0.106066 0 -0.106066
vt -4.17583 4.17583
vn 0 -1 -0
v 0.129904 0 -0.075
vt -5.11432 2.95276
v 0.144889 0 -0.0388229
vt -5.70429 1.52846
v 0.15 0 9.18485e-18
vt -5.90551 -3.61608e-16
v 0.144889 0 0.0388229
vt -5.70429 -1.52846
v 0.129904 0 0.075
vt -5.11432 -2.95276
v 0.106066 0 0.106066
vt -4.17583 -4.17583
v 0.075 0 0.129904
vt -2.95276 -5.11432
v 0.0388229 0 0.144889
vt -1.52846 -5.70429
v 0 0 0.15
vt 0 -5.90551
v -0.0388229 0 0.144889
vt 1.52846 -5.70429
v -0.075 0 0.129904
vt 2.95276 -5.11432
v -0.106066 0 0.106066
vt 4.17583 -4.17583
v -0.129904 0 0.075
vt 5.11432 -2.95276
v -0.144889 0 0.0388229
vt 5.70429 -1.52846
v -0.15 0 -2.75546e-17
vt 5.90551 1.08482e-15
v -0.144889 0 -0.0388229
vt 5.70429 1.52846
v -0.129904 0 -0.075
vt 5.11432 2.95276
v -0.106066 0 -0.106066
vt 4.17583 4.17583
v -0.075 0 -0.129904
vt 2.95276 5.11432
v -0.0388229 0 -0.144889
vt 1.52846 5.70429
v 1.83697e-17 0 -0.15
vt -7.23217e-16 5.90551
v 0.0388229 0 -0.144889
vt -1.52846 5.70429
v 0.075 0 -0.129904
vt -2.95276 5.11432
f 1/1/1 2/2/1 3/3/1 4/4/1 5/5/1 6/6/1 7/7/1 8/8/1 9/9/1 10/10/1 11/11/1 12/12/1 13/13/1 14/14/1 15/15/1 16/16/1 17/17/1 18/18/1 19/19/1 20/20/1 21/21/1 22/22/1 23/23/1 24/24/1 

vt -0.770824 0
vn 0.866025 0 -0.5
vt 0.770824 0
vn 0.707107 0 -0.707107
v 0.106066 0.3 -0.106066
vt 0.770824 11.811
v 0.129904 0.3 -0.075
vt -0.770824 11.811
f 2/25/2 1/26/3 25/27/3 26/28/2 

vn 0.5 0 -0.866025
v 0.075 0.3 -0.129904
f 1/25/3 24/26/4 27/27/4 25/28/3 

vn 0.258819 0 -0.965926
v 0.0388229 0.3 -0.144889
f 24/25/4 23/26/5 28/27/5 27/28/4 

vn 4.75916e-16 0 -1
v 1.83697e-17 0.3 -0.15
f 23/25/5 22/26/6 29/27/6 28/28/5 

vn -0.258819 0 -0.965926
v -0.0388229 0.3 -0.144889
f 22/25/6 21/26/7 30/27/7 29/28/6 

vn -0.5 0 -0.866025
v -0.075 0.3 -0.129904
f 21/25/7 20/26/8 31/27/8 30/28/7 

vn -0.707107 0 -0.707107
v -0.106066 0.3 -0.106066
f 20/25/8 19/26/9 32/27/9 31/28/8 

vn -0.866025 0 -0.5
v -0.129904 0.3 -0.075
f 19/25/9 18/26/10 33/27/10 32/28/9 

vn -0.965926 0 -0.258819
v -0.144889 0.3 -0.0388229
f 18/25/10 17/26/11 34/27/11 33/28/10 

vn -1 0 -6.43887e-16
v -0.15 0.3 -2.75546e-17
f 17/25/11 16/26/12 35/27/12 34/28/11 

vn -0.965926 0 0.258819
v -0.144889 0.3 0.0388229
f 16/25/12 15/26/13 36/27/13 35/28/12 

vn -0.866025 0 0.5
v -0.129904 0.3 0.075
f 15/25/13 14/26/14 37/27/14 36/28/13 

vn -0.707107 0 0.707107
v -0.106066 0.3 0.106066
f 14/25/14 13/26/15 38/27/15 37/28/14 

vn -0.5 0 0.866025
v -0.075 0.3 0.129904
f 13/25/15 12/26/16 39/27/16 38/28/15 

vn -0.258819 0 0.965926
v -0.0388229 0.3 0.144889
f 12/25/16 11/26/17 40/27/17 39/28/16 

vn -3.49938e-16 0 1
v 0 0.3 0.15
f 11/25/17 10/26/18 41/27/18 40/28/17 

vn 0.258819 0 0.965926
v 0.0388229 0.3 0.144889
f 10/25/18 9/26/19 42/27/19 41/28/18 

vn 0.5 0 0.866025
v 0.075 0.3 0.129904
f 9/25/19 8/26/20 43/27/20 42/28/19 

vn 0.707107 0 0.707107
v 0.106066 0.3 0.106066
f 8/25/20 7/26/21 44/27/21 43/28/20 

vn 0.866025 0 0.5
v 0.129904 0.3 0.075
f 7/25/21 6/26/22 45/27/22 44/28/21 

vn 0.965926 0 0.258819
v 0.144889 0.3 0.0388229
f 6/25/22 5/26/23 46/27/23 45/28/22 

vn 1 0 2.23961e-16
v 0.15 0.3 9.18485e-18
f 5/25/23 4/26/24 47/27/24 46/28/23 

vn 0.965926 0 -0.258819
v 0.144889 0.3 -0.0388229
f 4/25/24 3/26/25 48/27/25 47/28/24 

f 3/25/25 2/26/2 26/27/2 48/28/25 

v 0.139952 0.338823 -0.0375
vt -0.744559 12.4953
vn 0.932995 0.258889 -0.249995
vt -0.770824 10.9539
vn 0.957662 0.130526 -0.256605
vt 0.770824 10.9539
vn 0.858616 0.130526 -0.495722
v 0.125477 0.338823 -0.0724444
vt 0.744559 12.4953
vn 0.8365 0.258889 -0.482954
f 49/29/26 48/30/27 26/31/28 50/32/29 

v 0.144889 0.338823 -0
vn 0.965907 0.258889 2.39844e-16
vn 0.991445 0.130526 2.37924e-16
f 51/29/30 47/30/31 48/31/27 49/32/26 

v 0.139952 0.338823 0.0375
vn 0.932995 0.258889 0.249995
vn 0.957662 0.130526 0.256605
vn 0.965907 0.258889 2.3279e-16
f 52/29/32 46/30/33 47/31/31 51/32/34 

v 0.125477 0.338823 0.0724444
vn 0.8365 0.258889 0.482954
vn 0.858616 0.130526 0.495722
f 53/29/35 45/30/36 46/31/33 52/32/32 

v 0.102452 0.338823 0.102452
vn 0.682999 0.258889 0.682999
vn 0.701057 0.130526 0.701057
f 54/29/37 44/30/38 45/31/36 53/32/35 

v 0.0724444 0.338823 0.125477
vn 0.482954 0.258889 0.8365
vn 0.495722 0.130526 0.858616
f 55/29/39 43/30/40 44/31/38 54/32/37 

v 0.0375 0.338823 0.139952
vn 0.249995 0.258889 0.932995
vn 0.256605 0.130526 0.957662
f 56/29/41 42/30/42 43/31/40 55/32/39 

v 0 0.338823 0.144889
vn -3.66821e-16 0.258889 0.965907
vn -3.63883e-16 0.130526 0.991445
f 57/29/43 41/30/44 42/31/42 56/32/41 

v -0.0375 0.338823 0.139952
vn -0.249995 0.258889 0.932995
vn -0.256605 0.130526 0.957662
f 58/29/45 40/30/46 41/31/44 57/32/43 

v -0.0724444 0.338823 0.125477
vn -0.482954 0.258889 0.8365
vn -0.495722 0.130526 0.858616
f 59/29/47 39/30/48 40/31/46 58/32/45 

v -0.102452 0.338823 0.102452
vn -0.682999 0.258889 0.682999
vn -0.701057 0.130526 0.701057
f 60/29/49 38/30/50 39/31/48 59/32/47 

v -0.125477 0.338823 0.0724444
vn -0.8365 0.258889 0.482954
vn -0.858616 0.130526 0.495722
f 61/29/51 37/30/52 38/31/50 60/32/49 

v -0.139952 0.338823 0.0375
vn -0.932995 0.258889 0.249995
vn -0.957662 0.130526 0.256605
f 62/29/53 36/30/54 37/31/52 61/32/51 

v -0.144889 0.338823 -2.4851e-17
vn -0.965907 0.258889 -6.41936e-16
vn -0.991445 0.130526 -6.29798e-16
f 63/29/55 35/30/56 36/31/54 62/32/53 

v -0.139952 0.338823 -0.0375
vn -0.932995 0.258889 -0.249995
vn -0.957662 0.130526 -0.256605
vn -0.965907 0.258889 -6.34882e-16
f 64/29/57 34/30/58 35/31/56 63/32/59 

v -0.125477 0.338823 -0.0724444
vn -0.8365 0.258889 -0.482954
vn -0.858616 0.130526 -0.495722
f 65/29/60 33/30/61 34/31/58 64/32/57 

v -0.102452 0.338823 -0.102452
vn -0.682999 0.258889 -0.682999
vn -0.701057 0.130526 -0.701057
f 66/29/62 32/30/63 33/31/61 65/32/60 

v -0.0724444 0.338823 -0.125477
vn -0.482954 0.258889 -0.8365
vn -0.495722 0.130526 -0.858616
f 67/29/64 31/30/65 32/31/63 66/32/62 

v -0.0375 0.338823 -0.139952
vn -0.249995 0.258889 -0.932995
vn -0.256605 0.130526 -0.957662
f 68/29/66 30/30/67 31/31/65 67/32/64 

v 5.63993e-18 0.338823 -0.144889
vn 4.6558e-16 0.258889 -0.965907
vn 4.47856e-16 0.130526 -0.991445
f 69/29/68 29/30/69 30/31/67 68/32/66 

v 0.0375 0.338823 -0.139952
vn 0.249995 0.258889 -0.932995
vn 0.256605 0.130526 -0.957662
vn 4.58526e-16 0.258889 -0.965907
f 70/29/70 28/30/71 29/31/69 69/32/72 

v 0.0724444 0.338823 -0.125477
vn 0.482954 0.258889 -0.8365
vn 0.495722 0.130526 -0.858616
f 71/29/73 27/30/74 28/31/71 70/32/70 

v 0.102452 0.338823 -0.102452
vn 0.682999 0.258889 -0.682999
vn 0.701057 0.130526 -0.701057
f 72/29/75 25/30/76 27/31/74 71/32/73 

f 50/29/29 26/30/28 25/31/76 72/32/75 

v 0.1125 0.375 -0.0649519
vt -0.667553 11.7308
vn 0.749945 0.500109 -0.432981
vt -0.744559 10.1911
vt 0.744559 10.1911
v 0.0918559 0.375 -0.0918559
vt 0.667553 11.7308
vn 0.612328 0.500109 -0.612328
f 73/33/77 50/34/29 72/35/75 74/36/78 

v 0.125477 0.375 -0.0336216
vn 0.836455 0.500109 -0.224128
f 75/33/79 49/34/26 50/35/29 73/36/77 

v 0.129904 0.375 5.63993e-18
vn 0.865962 0.500109 1.72568e-16
f 76/33/80 51/34/30 49/35/26 75/36/79 

v 0.125477 0.375 0.0336216
vn 0.836455 0.500109 0.224128
f 77/33/81 52/34/32 51/35/34 76/36/80 

v 0.1125 0.375 0.0649519
vn 0.749945 0.500109 0.432981
f 78/33/82 53/34/35 52/35/32 77/36/81 

v 0.0918559 0.375 0.0918559
vn 0.612328 0.500109 0.612328
f 79/33/83 54/34/37 53/35/35 78/36/82 

v 0.0649519 0.375 0.1125
vn 0.432981 0.500109 0.749945
f 80/33/84 55/34/39 54/35/37 79/36/83 

v 0.0336216 0.375 0.125477
vn 0.224128 0.500109 0.836455
f 81/33/85 56/34/41 55/35/39 80/36/84 

v 1.12799e-17 0.375 0.129904
vn -3.31049e-16 0.500109 0.865962
vn -3.70348e-16 0.258889 0.965907
f 82/33/86 57/34/87 56/35/41 81/36/85 

v -0.0336216 0.375 0.125477
vn -0.224128 0.500109 0.836455
f 83/33/88 58/34/45 57/35/87 82/36/86 

v -0.0649519 0.375 0.1125
vn -0.432981 0.500109 0.749945
f 84/33/89 59/34/47 58/35/45 83/36/88 

v -0.0918559 0.375 0.0918559
vn -0.612328 0.500109 0.612328
f 85/33/90 60/34/49 59/35/47 84/36/89 

v -0.1125 0.375 0.0649519
vn -0.749945 0.500109 0.432981
f 86/33/91 61/34/51 60/35/49 85/36/90 

v -0.125477 0.375 0.0336216
vn -0.836455 0.500109 0.224128
f 87/33/92 62/34/53 61/35/51 86/36/91 

v -0.129904 0.375 -9.86988e-18
vn -0.865962 0.500109 -4.36703e-16
vn -0.965907 0.258889 -6.38409e-16
f 88/33/93 63/34/94 62/35/53 87/36/92 

v -0.125477 0.375 -0.0336216
vn -0.836455 0.500109 -0.224128
f 89/33/95 64/34/57 63/35/94 88/36/93 

v -0.1125 0.375 -0.0649519
vn -0.749945 0.500109 -0.432981
f 90/33/96 65/34/60 64/35/57 89/36/95 

v -0.0918559 0.375 -0.0918559
vn -0.612328 0.500109 -0.612328
f 91/33/97 66/34/62 65/35/60 90/36/96 

v -0.0649519 0.375 -0.1125
vn -0.432981 0.500109 -0.749945
f 92/33/98 67/34/64 66/35/62 91/36/97 

v -0.0336216 0.375 -0.125477
vn -0.224128 0.500109 -0.836455
f 93/33/99 68/34/66 67/35/64 92/36/98 

v 5.63993e-18 0.375 -0.129904
vn 3.38092e-16 0.500109 -0.865962
f 94/33/100 69/34/68 68/35/66 93/36/99 

v 0.0336216 0.375 -0.125477
vn 0.224128 0.500109 -0.836455
vn 3.3457e-16 0.500109 -0.865962
f 95/33/101 70/34/70 69/35/72 94/36/102 

v 0.0649519 0.375 -0.1125
vn 0.432981 0.500109 -0.749945
f 96/33/103 71/34/73 70/35/70 95/36/101 

f 74/33/78 72/34/75 71/35/73 96/36/103 

v 0.075 0.406066 -0.075
vt -0.545055 10.2168
vn 0.499927 0.70721 -0.499927
vt -0.667553 8.67998
vt 0.667553 8.67998
v 0.053033 0.406066 -0.0918559
vt 0.545055 10.2168
vn 0.353502 0.70721 -0.612283
f 97/37/104 74/38/78 96/39/103 98/40/105 

v 0.0918559 0.406066 -0.053033
vn 0.612283 0.70721 -0.353502
f 99/37/106 73/38/77 74/39/78 97/40/104 

v 0.102452 0.406066 -0.0274519
vn 0.682913 0.70721 -0.182986
f 100/37/107 75/38/79 73/39/77 99/40/106 

v 0.106066 0.406066 -1.12799e-17
vn 0.707003 0.70721 5.27176e-17
f 101/37/108 76/38/80 75/39/79 100/40/107 

v 0.102452 0.406066 0.0274519
vn 0.682913 0.70721 0.182986
vn 0.707003 0.70721 5.62321e-17
f 102/37/109 77/38/81 76/39/80 101/40/110 

v 0.0918559 0.406066 0.053033
vn 0.612283 0.70721 0.353502
f 103/37/111 78/38/82 77/39/81 102/40/109 

v 0.075 0.406066 0.075
vn 0.499927 0.70721 0.499927
f 104/37/112 79/38/83 78/39/82 103/40/111 

v 0.053033 0.406066 0.0918559
vn 0.353502 0.70721 0.612283
f 105/37/113 80/38/84 79/39/83 104/40/112 

v 0.0274519 0.406066 0.102452
vn 0.182986 0.70721 0.682913
f 106/37/114 81/38/85 80/39/84 105/40/113 

v 1.69198e-17 0.406066 0.106066
vn -1.72211e-16 0.70721 0.707003
f 107/37/115 82/38/86 81/39/85 106/40/114 

v -0.0274519 0.406066 0.102452
vn -0.182986 0.70721 0.682913
vn -1.68696e-16 0.70721 0.707003
f 108/37/116 83/38/88 82/39/86 107/40/117 

v -0.053033 0.406066 0.0918559
vn -0.353502 0.70721 0.612283
f 109/37/118 84/38/89 83/39/88 108/40/116 

v -0.075 0.406066 0.075
vn -0.499927 0.70721 0.499927
f 110/37/119 85/38/90 84/39/89 109/40/118 

v -0.0918559 0.406066 0.053033
vn -0.612283 0.70721 0.353502
f 111/37/120 86/38/91 85/39/90 110/40/119 

v -0.102452 0.406066 0.0274519
vn -0.682913 0.70721 0.182986
f 112/37/121 87/38/92 86/39/91 111/40/120 

v -0.106066 0.406066 1.40998e-17
vn -0.707003 0.70721 -2.4953e-16
f 113/37/122 88/38/93 87/39/92 112/40/121 

v -0.102452 0.406066 -0.0274519
vn -0.682913 0.70721 -0.182986
f 114/37/123 89/38/95 88/39/93 113/40/122 

v -0.0918559 0.406066 -0.053033
vn -0.612283 0.70721 -0.353502
f 115/37/124 90/38/96 89/39/95 114/40/123 

v -0.075 0.406066 -0.075
vn -0.499927 0.70721 -0.499927
f 116/37/125 91/38/97 90/39/96 115/40/124 

v -0.053033 0.406066 -0.0918559
vn -0.353502 0.70721 -0.612283
f 117/37/126 92/38/98 91/39/97 116/40/125 

v -0.0274519 0.406066 -0.102452
vn -0.182986 0.70721 -0.682913
f 118/37/127 93/38/99 92/39/98 117/40/126 

v -1.69198e-17 0.406066 -0.106066
vn 1.15979e-16 0.70721 -0.707003
f 119/37/128 94/38/100 93/39/99 118/40/127 

v 0.0274519 0.406066 -0.102452
vn 0.182986 0.70721 -0.682913
vn 1.12464e-16 0.70721 -0.707003
f 120/37/129 95/38/101 94/39/102 119/40/130 

f 98/37/105 96/38/103 95/39/101 120/40/129 

v 0.0375 0.429904 -0.0649519
vt -0.385412 8.04408
vn 0.249945 0.866089 -0.432917
vt -0.545055 6.51072
vt 0.545055 6.51072
v 0.0194114 0.429904 -0.0724444
vt 0.385412 8.04408
vn 0.129381 0.866089 -0.482856
f 121/41/131 98/42/105 120/43/129 122/44/132 

v 0.053033 0.429904 -0.053033
vn 0.353475 0.866089 -0.353475
f 123/41/133 97/42/104 98/43/105 121/44/131 

v 0.0649519 0.429904 -0.0375
vn 0.432917 0.866089 -0.249945
f 124/41/134 99/42/106 97/43/104 123/44/133 

v 0.0724444 0.429904 -0.0194114
vn 0.482856 0.866089 -0.129381
f 125/41/135 100/42/107 99/43/106 124/44/134 

v 0.075 0.429904 -2.25597e-17
vn 0.49989 0.866089 5.96226e-17
f 126/41/136 101/42/108 100/43/107 125/44/135 

v 0.0724444 0.429904 0.0194114
vn 0.482856 0.866089 0.129381
f 127/41/137 102/42/109 101/43/110 126/44/136 

v 0.0649519 0.429904 0.0375
vn 0.432917 0.866089 0.249945
f 128/41/138 103/42/111 102/43/109 127/44/137 

v 0.053033 0.429904 0.053033
vn 0.353475 0.866089 0.353475
f 129/41/139 104/42/112 103/43/111 128/44/138 

v 0.0375 0.429904 0.0649519
vn 0.249945 0.866089 0.432917
f 130/41/140 105/42/113 104/43/112 129/44/139 

v 0.0194114 0.429904 0.0724444
vn 0.129381 0.866089 0.482856
f 131/41/141 106/42/114 105/43/113 130/44/140 

v 2.81997e-17 0.429904 0.075
vn -8.06659e-17 0.866089 0.49989
f 132/41/142 107/42/115 106/43/114 131/44/141 

v -0.0194114 0.429904 0.0724444
vn -0.129381 0.866089 0.482856
f 133/41/143 108/42/116 107/43/117 132/44/142 

v -0.0375 0.429904 0.0649519
vn -0.249945 0.866089 0.432917
f 134/41/144 109/42/118 108/43/116 133/44/143 

v -0.053033 0.429904 0.053033
vn -0.353475 0.866089 0.353475
f 135/41/145 110/42/119 109/43/118 134/44/144 

v -0.0649519 0.429904 0.0375
vn -0.432917 0.866089 0.249945
f 136/41/146 111/42/120 110/43/119 135/44/145 

v -0.0724444 0.429904 0.0194114
vn -0.482856 0.866089 0.129381
f 137/41/147 112/42/121 111/43/120 136/44/146 

v -0.075 0.429904 4.22995e-17
vn -0.49989 0.866089 -2.63041e-16
f 138/41/148 113/42/122 112/43/121 137/44/147 

v -0.0724444 0.429904 -0.0194114
vn -0.482856 0.866089 -0.129381
f 139/41/149 114/42/123 113/43/122 138/44/148 

v -0.0649519 0.429904 -0.0375
vn -0.432917 0.866089 -0.249945
f 140/41/150 115/42/124 114/43/123 139/44/149 

v -0.053033 0.429904 -0.053033
vn -0.353475 0.866089 -0.353475
f 141/41/151 116/42/125 115/43/124 140/44/150 

v -0.0375 0.429904 -0.0649519
vn -0.249945 0.866089 -0.432917
f 142/41/152 117/42/126 116/43/125 141/44/151 

v -0.0194114 0.429904 -0.0724444
vn -0.129381 0.866089 -0.482856
f 143/41/153 118/42/127 117/43/126 142/44/152 

v -3.94795e-17 0.429904 -0.075
vn 1.47303e-16 0.866089 -0.49989
f 144/41/154 119/42/128 118/43/127 143/44/153 

vn 1.43796e-16 0.866089 -0.49989
f 122/41/132 120/42/129 119/43/130 144/44/155 

v 0.0100481 0.444889 -0.0375
vt -0.199504 5.35384
vn 0.0669689 0.965945 -0.249931
vt -0.385412 3.82344
vt 0.385412 3.82344
v -5.63993e-17 0.444889 -0.0388229
vt 0.199504 5.35384
vn 1.5058e-16 0.965945 -0.258748
f 145/45/156 122/46/132 144/47/155 146/48/157 

v 0.0194114 0.444889 -0.0336216
vn 0.129374 0.965945 -0.224082
f 147/45/158 121/46/131 122/47/132 145/48/156 

v 0.0274519 0.444889 -0.0274519
vn 0.182962 0.965945 -0.182962
f 148/45/159 123/46/133 121/47/131 147/48/158 

v 0.0336216 0.444889 -0.0194114
vn 0.224082 0.965945 -0.129374
f 149/45/160 124/46/134 123/47/133 148/48/159 

v 0.0375 0.444889 -0.0100481
vn 0.249931 0.965945 -0.0669689
f 150/45/161 125/46/135 124/47/134 149/48/160 

v 0.0388229 0.444889 -3.94795e-17
vn 0.258748 0.965945 9.27993e-17
vn 0.49989 0.866089 5.7869e-17
f 151/45/162 126/46/163 125/47/135 150/48/161 

v 0.0375 0.444889 0.0100481
vn 0.249931 0.965945 0.0669689
vn 0.258748 0.965945 9.45502e-17
f 152/45/164 127/46/137 126/47/136 151/48/165 

v 0.0336216 0.444889 0.0194114
vn 0.224082 0.965945 0.129374
f 153/45/166 128/46/138 127/47/137 152/48/164 

v 0.0274519 0.444889 0.0274519
vn 0.182962 0.965945 0.182962
f 154/45/167 129/46/139 128/47/138 153/48/166 

v 0.0194114 0.444889 0.0336216
vn 0.129374 0.965945 0.224082
f 155/45/168 130/46/140 129/47/139 154/48/167 

v 0.0100481 0.444889 0.0375
vn 0.0669689 0.965945 0.249931
f 156/45/169 131/46/141 130/47/140 155/48/168 

v 4.22995e-17 0.444889 0.0388229
vn -4.90261e-17 0.965945 0.258748
f 157/45/170 132/46/142 131/47/141 156/48/169 

v -0.0100481 0.444889 0.0375
vn -0.0669689 0.965945 0.249931
vn -8.24195e-17 0.866089 0.49989
f 158/45/171 133/46/143 132/47/172 157/48/170 

v -0.0194114 0.444889 0.0336216
vn -0.129374 0.965945 0.224082
f 159/45/173 134/46/144 133/47/143 158/48/171 

v -0.0274519 0.444889 0.0274519
vn -0.182962 0.965945 0.182962
f 160/45/174 135/46/145 134/47/144 159/48/173 

v -0.0336216 0.444889 0.0194114
vn -0.224082 0.965945 0.129374
f 161/45/175 136/46/146 135/47/145 160/48/174 

v -0.0375 0.444889 0.0100481
vn -0.249931 0.965945 0.0669689
f 162/45/176 137/46/147 136/47/146 161/48/175 

v -0.0388229 0.444889 7.33191e-17
vn -0.258748 0.965945 -1.62837e-16
vn -0.49989 0.866089 -2.61287e-16
f 163/45/177 138/46/178 137/47/147 162/48/176 

v -0.0375 0.444889 -0.0100481
vn -0.249931 0.965945 -0.0669689
vn -0.258748 0.965945 -1.64587e-16
f 164/45/179 139/46/149 138/47/178 163/48/180 

v -0.0336216 0.444889 -0.0194114
vn -0.224082 0.965945 -0.129374
f 165/45/181 140/46/150 139/47/149 164/48/179 

v -0.0274519 0.444889 -0.0274519
vn -0.182962 0.965945 -0.182962
f 166/45/182 141/46/151 140/47/150 165/48/181 

v -0.0194114 0.444889 -0.0336216
vn -0.129374 0.965945 -0.224082
f 167/45/183 142/46/152 141/47/151 166/48/182 

v -0.0100481 0.444889 -0.0375
vn -0.0669689 0.965945 -0.249931
f 168/45/184 143/46/153 142/47/152 167/48/183 

vn 1.45549e-16 0.866089 -0.49989
f 146/45/157 144/46/185 143/47/153 168/48/184 

v -2.78472e-17 0.45 1.12799e-16
vt 1.66662e-15 2.33208
vn 2.94575e-17 1 -1.98328e-17
vt -0.199504 0.803397
vt 0.199504 0.803397
f 169/49/186 146/50/157 168/51/184

vt 4.51802e-16 2.33208
vn 2.43535e-17 1 -1.63329e-17
vn 1.49705e-16 0.965945 -0.258748
f 169/52/187 145/50/156 146/51/188

vt -6.86565e-16 2.33208
vn 2.56659e-17 1 -1.2833e-17
f 169/53/189 147/50/158 145/51/156

vt -1.83365e-15 2.33208
vn 2.91658e-17 1 -1.2833e-17
f 169/54/190 148/50/159 147/51/158

vt -2.85578e-15 2.33208
vn 2.15827e-17 1 -8.74975e-18
f 169/55/191 149/50/160 148/51/159

vt -3.79432e-15 2.33208
vn 1.98328e-17 1 -7.87478e-18
f 169/56/192 150/50/161 149/51/160

vt -4.20429e-15 2.33208
vn 1.63329e-17 1 -1.23955e-17
vn 0.258748 0.965945 9.36748e-17
f 169/57/193 151/50/194 150/51/161

vt -4.546e-15 2.33208
vn 1.74995e-17 1 -9.62473e-18
f 169/58/195 152/50/164 151/51/165

vt -4.5224e-15 2.33208
vn 1.69162e-17 1 -9.04141e-18
f 169/59/196 153/50/166 152/51/164

vt -4.19061e-15 2.33208
vn 1.1083e-17 1 -8.74975e-18
f 169/60/197 154/50/167 153/51/166

vt -3.57323e-15 2.33208
vn 1.2833e-17 1 -6.9998e-18
f 169/61/198 155/50/168 154/51/167

vt -2.60132e-15 2.33208
vn 1.1958e-17 1 -1.34163e-17
f 169/62/199 156/50/169 155/51/168

vt -1.66662e-15 2.33208
vn 1.34163e-17 1 -9.33307e-18
f 169/63/200 157/50/170 156/51/169

vt -4.51802e-16 2.33208
vn 1.41454e-17 1 -1.51662e-17
vn -4.99015e-17 0.965945 0.258748
f 169/64/201 158/50/171 157/51/202

vt 6.86565e-16 2.33208
vn 1.2833e-17 1 -1.69162e-17
f 169/65/203 159/50/173 158/51/171

vt 1.83365e-15 2.33208
vn 1.22497e-17 1 -2.33327e-17
f 169/66/204 160/50/174 159/51/173

vt 2.63374e-15 2.33208
vn 1.51662e-17 1 -2.2166e-17
f 169/67/205 161/50/175 160/51/174

vt 3.90534e-15 2.33208
vn 1.39996e-17 1 -2.18744e-17
f 169/68/206 162/50/176 161/51/175

vt 4.31531e-15 2.33208
vn 1.86661e-17 1 -2.46451e-17
f 169/69/207 163/50/180 162/51/176

vt 4.60151e-15 2.33208
vn -0.258748 0.965945 -1.63712e-16
f 169/70/207 164/50/179 163/51/208

vt 4.41138e-15 2.33208
vn 1.80828e-17 1 -2.33327e-17
f 169/71/209 165/50/181 164/51/179

vt 4.19061e-15 2.33208
vn 1.80828e-17 1 -2.2166e-17
f 169/72/210 166/50/182 165/51/181

vt 3.79528e-15 2.33208
vn 2.68326e-17 1 -1.98328e-17
f 169/73/211 167/50/183 166/51/182

vt 2.60132e-15 2.33208
vn 2.3041e-17 1 -1.92495e-17
f 169/74/212 168/50/184 167/51/183

