# Blender v2.74 (sub 0) OBJ File: ''
# www.blender.org
o Cube_Cube.001
v 1.000000 -0.500000 0.612215
v 1.000000 0.500000 0.612215
v -1.000000 -0.500000 0.612215
v -1.000000 0.500000 0.612215
v 1.000000 -0.500000 -1.387785
v 1.000000 0.500000 -1.387785
v -1.000000 -0.500000 -1.387785
v -1.000000 0.500000 -1.387785
v 1.000000 -0.500000 2.007575
v 1.000000 0.500000 2.007575
v -1.000000 0.500000 2.007575
v -1.000000 -0.500000 2.007575
v -1.000000 0.500000 -2.410014
v -1.000000 -0.500000 -2.410014
v 1.000000 0.500000 -2.410014
v 1.000000 -0.500000 -2.410014
v 1.000000 0.763515 0.612215
v -1.000000 0.763515 0.612215
v -1.000000 0.763515 -1.387785
v 1.000000 0.763515 -1.387785
vt 1.000000 0.000000
vt 1.000000 1.000000
vt 0.000000 1.000000
vt 0.000000 0.000000
vn 0.000000 -1.000000 0.000000
vn -1.000000 0.000000 0.000000
vn 1.000000 0.000000 -0.000000
vn 0.000000 0.000000 1.000000
vn 0.000000 1.000000 0.000000
vn 0.000000 0.000000 -1.000000
s off
f 1/1/1 9/2/1 12/3/1
f 8/1/2 7/2/2 3/3/2
f 7/1/1 14/2/1 16/3/1
f 2/1/3 1/2/3 5/3/3
f 1/4/1 3/1/1 7/2/1
f 6/1/3 20/2/3 17/3/3
f 11/1/4 12/2/4 9/3/4
f 3/1/2 12/2/2 11/3/2
f 2/4/5 4/1/5 11/2/5
f 2/1/3 10/2/3 9/3/3
f 15/1/6 16/2/6 14/3/6
f 5/1/3 16/2/3 15/3/3
f 8/4/5 6/1/5 15/2/5
f 8/1/2 13/2/2 14/3/2
f 19/1/5 18/2/5 17/3/5
f 8/1/6 19/2/6 20/3/6
f 4/1/2 18/2/2 19/3/2
f 2/1/4 17/2/4 18/3/4
f 3/4/1 1/1/1 12/3/1
f 4/4/2 8/1/2 3/3/2
f 5/4/1 7/1/1 16/3/1
f 6/4/3 2/1/3 5/3/3
f 5/3/1 1/4/1 7/2/1
f 2/4/3 6/1/3 17/3/3
f 10/4/4 11/1/4 9/3/4
f 4/4/2 3/1/2 11/3/2
f 10/3/5 2/4/5 11/2/5
f 1/4/3 2/1/3 9/3/3
f 13/4/6 15/1/6 14/3/6
f 6/4/3 5/1/3 15/3/3
f 13/3/5 8/4/5 15/2/5
f 7/4/2 8/1/2 14/3/2
f 20/4/5 19/1/5 17/3/5
f 6/4/6 8/1/6 20/3/6
f 8/4/2 4/1/2 19/3/2
f 4/4/4 2/1/4 18/3/4
