# Blender v2.74 (sub 0) OBJ File: ''
# www.blender.org
o Cube_Cube.001
v -1.709679 -0.129184 0.245576
v -0.454666 0.923897 1.392729
v -0.830909 0.608191 -1.392729
v 0.424104 1.661273 -0.245576
v -0.424104 -1.661273 0.245576
v 0.830909 -0.608191 1.392729
v 0.454666 -0.923897 -1.392729
v 1.709679 0.129184 -0.245576
vt 1.000000 0.000000
vt 1.000000 1.000000
vt 0.000000 1.000000
vt 0.000000 0.000000
vn -0.642800 0.766000 0.000000
vn 0.439400 0.368700 -0.819200
vn 0.642800 -0.766000 0.000000
vn -0.439400 -0.368700 0.819200
vn -0.627500 -0.526500 -0.573600
vn 0.627500 0.526500 0.573600
s off
f 4/1/1 3/2/1 1/3/1
f 8/1/2 7/2/2 3/3/2
f 8/4/3 6/1/3 5/2/3
f 6/4/4 2/1/4 1/2/4
f 3/1/5 7/2/5 5/3/5
f 8/1/6 4/2/6 2/3/6
f 2/4/1 4/1/1 1/3/1
f 4/4/2 8/1/2 3/3/2
f 7/3/3 8/4/3 5/2/3
f 5/3/4 6/4/4 1/2/4
f 1/4/5 3/1/5 5/3/5
f 6/4/6 8/1/6 2/3/6
